<svg xmlns="http://www.w3.org/2000/svg" viewBox="0 0 100 118" role="img" aria-label="NHL">
  <!-- NHL official shield silhouette -->
  <path d="M50 2 C34 2 18 4 10 14 L5 20 L5 70 C5 97 50 116 50 116 C50 116 95 97 95 70 L95 20 L90 14 C82 4 66 2 50 2 Z" fill="#010101"/>
  <!-- Gold pinstripe border -->
  <path d="M50 7 C35 7 21 9 14 18 L10 23 L10 70 C10 94 50 111 50 111 C50 111 90 94 90 70 L90 23 L86 18 C79 9 65 7 50 7 Z" fill="none" stroke="#C8A84B" stroke-width="1.5"/>
  <!-- NHL wordmark -->
  <text x="50" y="76" text-anchor="middle" font-family="'Arial Black', Impact, 'Franklin Gothic Heavy', sans-serif" font-size="30" font-weight="900" fill="#FFFFFF" letter-spacing="2">NHL</text>
</svg>
